<svg width="114" height="130" viewBox="0 0 114 130" fill="none" xmlns="http://www.w3.org/2000/svg">
<path d="M113.934 81.3275C113.964 81.2405 113.982 81.1525 113.987 81.0615C113.989 81.0405 114 81.0225 114 81.0005V65.0005C114 64.4485 113.552 64.0005 113 64.0005H97.414L33.707 0.2925C33.316 -0.0975 32.684 -0.0975 32.293 0.2925L0.292999 32.2925C0.276999 32.3085 0.271999 32.3295 0.258999 32.3445C0.197999 32.4135 0.149001 32.4885 0.109001 32.5705C0.0940012 32.6015 0.0780013 32.6285 0.0670013 32.6595C0.0270013 32.7685 0 32.8815 0 33.0005V49.0005C0 49.2655 0.104999 49.5205 0.292999 49.7065L32 81.4145V96.5865L16.293 112.294C16.105 112.481 16 112.736 16 113.001V129.001C16 129.406 16.244 129.77 16.617 129.926C16.741 129.977 16.871 130.001 17 130.001C17.26 130.001 17.516 129.898 17.707 129.706L33.707 113.706C33.895 113.52 34 113.266 34 113.001V98.0005H97C97.265 98.0005 97.52 97.8955 97.707 97.7065L113.707 81.7075L113.708 81.7065C113.793 81.6215 113.853 81.5235 113.901 81.4205C113.915 81.3905 113.923 81.3585 113.934 81.3275ZM112 80.0005H90V66.0005H97H97.02H112V80.0005ZM59.414 96.0005L73.414 82.0005H78.586L64.586 96.0005H59.414ZM64 64.0005H49C48.979 64.0005 48.96 64.0115 48.938 64.0125C48.849 64.0175 48.763 64.0355 48.678 64.0645C48.657 64.0715 48.635 64.0695 48.615 64.0785C48.602 64.0835 48.593 64.0945 48.581 64.0995C48.477 64.1475 48.378 64.2085 48.294 64.2925L48.293 64.2945L34 78.5865V65.4145L64 35.4145V64.0005ZM34 81.4145L48 67.4145V80.5865L34 94.5865V81.4145ZM50 66.0005H64V80.0005H50V66.0005ZM66 66.0005H72V80.0005H66V66.0005ZM80.002 66.0005L80 80.0005H74V66.0005H80.002ZM82.002 66.0005H88V80.0005H82L82.002 66.0005ZM89 64.0005H81.002H73H66V35.4145L94.586 64.0005H89ZM33 2.4145L63.586 33.0005L33 63.5865L2.414 33.0005L33 2.4145ZM2 35.4145L32 65.4145V78.5865L2 48.5865V35.4145ZM32 112.587L18 126.587V113.415L32 99.4145V112.587ZM49.414 82.0005H62.586L48.586 96.0005H35.414L49.414 82.0005ZM51.414 96.0005L65.414 82.0005H70.586L56.586 96.0005H51.414ZM67.414 96.0005L81.414 82.0005H86.586L72.586 96.0005H67.414ZM96.586 96.0005H75.414L89.414 82.0005H110.586L96.586 96.0005Z" fill="url(#paint0_linear_87_4)"/>
<path d="M33.707 49.7068L41.705 41.7088L41.708 41.7068L49.707 33.7068C50.098 33.3168 50.098 32.6838 49.707 32.2928L33.707 16.2928C33.696 16.2818 33.682 16.2768 33.67 16.2658C33.633 16.2318 33.592 16.2068 33.55 16.1778C33.508 16.1498 33.468 16.1228 33.423 16.1008C33.409 16.0938 33.398 16.0818 33.383 16.0768C33.354 16.0648 33.322 16.0628 33.292 16.0538C33.242 16.0388 33.194 16.0238 33.143 16.0168C33.095 16.0098 33.048 16.0098 33 16.0098C32.952 16.0098 32.905 16.0098 32.856 16.0168C32.805 16.0238 32.756 16.0388 32.707 16.0548C32.677 16.0638 32.646 16.0648 32.617 16.0768C32.602 16.0818 32.592 16.0938 32.578 16.0998C32.533 16.1218 32.492 16.1488 32.45 16.1768C32.409 16.2058 32.368 16.2318 32.33 16.2648C32.318 16.2758 32.304 16.2818 32.293 16.2918L16.294 32.2918C16.106 32.4798 16.001 32.7338 16.001 32.9988C16.001 33.2638 16.106 33.5188 16.294 33.7048L24.291 41.7028L24.293 41.7048L32.293 49.7048C32.488 49.9028 32.744 50.0008 33 50.0008C33.256 50.0008 33.512 49.9028 33.707 49.7068ZM41.001 39.5868L34 32.5868V19.4148L47.586 33.0008L41.001 39.5868ZM32 19.4148V32.5868L25.001 39.5868L18.415 33.0008L32 19.4148ZM26.415 41.0018L33 34.4148L39.586 41.0008L33 47.5868L26.415 41.0018Z" fill="url(#paint1_linear_87_4)"/>
<defs>
<linearGradient id="paint0_linear_87_4" x1="57" y1="129.251" x2="57" y2="-0.0779028" gradientUnits="userSpaceOnUse">
<stop stop-color="#0080FF"/>
<stop offset="1" stop-color="#FF0080"/>
</linearGradient>
<linearGradient id="paint1_linear_87_4" x1="33.0005" y1="129.251" x2="33.0005" y2="-0.0774364" gradientUnits="userSpaceOnUse">
<stop stop-color="#0080FF"/>
<stop offset="1" stop-color="#FF0080"/>
</linearGradient>
</defs>
</svg>
